<svg width="1312" height="87" viewBox="0 0 1312 87" fill="none" xmlns="http://www.w3.org/2000/svg">
<mask id="mask0_19_221" style="mask-type:alpha" maskUnits="userSpaceOnUse" x="0" y="0" width="1312" height="87">
<rect width="1312" height="87" fill="#F5F6FA"/>
</mask>
<g mask="url(#mask0_19_221)">
<path d="M33.8294 -466L0 -436.267M67.4702 -466L33.6341 -436.267M101.104 -466L67.2682 -436.267M134.738 -466L100.909 -436.267M168.373 -466L134.543 -436.267M202.013 -466L168.177 -436.267M235.648 -466L201.811 -436.267M269.282 -466L235.452 -436.267M302.923 -466L269.086 -436.267M336.557 -466L302.721 -436.267M370.191 -466L336.361 -436.267M403.825 -466L369.995 -436.267M437.466 -466L403.63 -436.267M471.1 -466L437.264 -436.267M504.734 -466L470.905 -436.267M538.375 -466L504.539 -436.267M572.009 -466L538.173 -436.267M605.643 -466L571.814 -436.267M639.277 -466L605.448 -436.267M672.918 -466L639.082 -436.267M706.552 -466L672.723 -436.267M740.186 -466L706.357 -436.267M773.827 -466L739.991 -436.267M807.461 -466L773.625 -436.267M841.095 -466L807.266 -436.267M874.736 -466L840.9 -436.267M908.37 -466L874.534 -436.267M942.004 -466L908.175 -436.267M975.639 -466L941.809 -436.267M1009.28 -466L975.443 -436.267M1042.91 -466L1009.08 -436.267M1076.55 -466L1042.72 -436.267M1110.19 -466L1076.35 -436.267M1143.82 -466L1109.99 -436.267M1177.46 -466L1143.63 -436.267M1211.09 -466L1177.26 -436.267M1244.73 -466L1210.9 -436.267M1278.37 -466L1244.53 -436.267M1312 -466L1278.17 -436.267M33.8294 -436.439L0 -406.712M67.4702 -436.439L33.6341 -406.712M101.104 -436.439L67.2682 -406.712M134.738 -436.439L100.909 -406.712M168.373 -436.439L134.543 -406.712M202.013 -436.439L168.177 -406.712M235.648 -436.439L201.811 -406.712M269.282 -436.439L235.452 -406.712M302.923 -436.439L269.086 -406.712M336.557 -436.439L302.721 -406.712M370.191 -436.439L336.361 -406.712M403.825 -436.439L369.995 -406.712M437.466 -436.439L403.63 -406.712M471.1 -436.439L437.264 -406.712M504.734 -436.439L470.905 -406.712M538.375 -436.439L504.539 -406.712M572.009 -436.439L538.173 -406.712M605.643 -436.439L571.814 -406.712M639.277 -436.439L605.448 -406.712M672.918 -436.439L639.082 -406.712M706.552 -436.439L672.723 -406.712M740.186 -436.439L706.357 -406.712M773.827 -436.439L739.991 -406.712M807.461 -436.439L773.625 -406.712M841.095 -436.439L807.266 -406.712M874.736 -436.439L840.9 -406.712M908.37 -436.439L874.534 -406.712M942.004 -436.439L908.175 -406.712M975.639 -436.439L941.809 -406.712M1009.28 -436.439L975.443 -406.712M1042.91 -436.439L1009.08 -406.712M1076.55 -436.439L1042.72 -406.712M1110.19 -436.439L1076.35 -406.712M1143.82 -436.439L1109.99 -406.712M1177.46 -436.439L1143.63 -406.712M1211.09 -436.439L1177.26 -406.712M1244.73 -436.439L1210.9 -406.712M1278.37 -436.439L1244.53 -406.712M1312 -436.439L1278.17 -406.712M33.8294 -406.883L0 -377.15M67.4702 -406.883L33.6341 -377.15M101.104 -406.883L67.2682 -377.15M134.738 -406.883L100.909 -377.15M168.373 -406.883L134.543 -377.15M202.013 -406.883L168.177 -377.15M235.648 -406.883L201.811 -377.15M269.282 -406.883L235.452 -377.15M302.923 -406.883L269.086 -377.15M336.557 -406.883L302.721 -377.15M370.191 -406.883L336.361 -377.15M403.825 -406.883L369.995 -377.15M437.466 -406.883L403.63 -377.15M471.1 -406.883L437.264 -377.15M504.734 -406.883L470.905 -377.15M538.375 -406.883L504.539 -377.15M572.009 -406.883L538.173 -377.15M605.643 -406.883L571.814 -377.15M639.277 -406.883L605.448 -377.15M672.918 -406.883L639.082 -377.15M706.552 -406.883L672.723 -377.15M740.186 -406.883L706.357 -377.15M773.827 -406.883L739.991 -377.15M807.461 -406.883L773.625 -377.15M841.095 -406.883L807.266 -377.15M874.736 -406.883L840.9 -377.15M908.37 -406.883L874.534 -377.15M942.004 -406.883L908.175 -377.15M975.639 -406.883L941.809 -377.15M1009.28 -406.883L975.443 -377.15M1042.91 -406.883L1009.08 -377.15M1076.55 -406.883L1042.72 -377.15M1110.19 -406.883L1076.35 -377.15M1143.82 -406.883L1109.99 -377.15M1177.46 -406.883L1143.63 -377.15M1211.09 -406.883L1177.26 -377.15M1244.73 -406.883L1210.9 -377.15M1278.37 -406.883L1244.53 -377.15M1312 -406.883L1278.17 -377.15M33.8294 -377.322L0 -347.595M67.4702 -377.322L33.6341 -347.595M101.104 -377.322L67.2682 -347.595M134.738 -377.322L100.909 -347.595M168.373 -377.322L134.543 -347.595M202.013 -377.322L168.177 -347.595M235.648 -377.322L201.811 -347.595M269.282 -377.322L235.452 -347.595M302.923 -377.322L269.086 -347.595M336.557 -377.322L302.721 -347.595M370.191 -377.322L336.361 -347.595M403.825 -377.322L369.995 -347.595M437.466 -377.322L403.63 -347.595M471.1 -377.322L437.264 -347.595M504.734 -377.322L470.905 -347.595M538.375 -377.322L504.539 -347.595M572.009 -377.322L538.173 -347.595M605.643 -377.322L571.814 -347.595M639.277 -377.322L605.448 -347.595M672.918 -377.322L639.082 -347.595M706.552 -377.322L672.723 -347.595M740.186 -377.322L706.357 -347.595M773.827 -377.322L739.991 -347.595M807.461 -377.322L773.625 -347.595M841.095 -377.322L807.266 -347.595M874.736 -377.322L840.9 -347.595M908.37 -377.322L874.534 -347.595M942.004 -377.322L908.175 -347.595M975.639 -377.322L941.809 -347.595M1009.28 -377.322L975.443 -347.595M1042.91 -377.322L1009.08 -347.595M1076.55 -377.322L1042.72 -347.595M1110.19 -377.322L1076.35 -347.595M1143.82 -377.322L1109.99 -347.595M1177.46 -377.322L1143.63 -347.595M1211.09 -377.322L1177.26 -347.595M1244.73 -377.322L1210.9 -347.595M1278.37 -377.322L1244.53 -347.595M1312 -377.322L1278.17 -347.595M33.8294 -347.766L0 -318.033M67.4702 -347.766L33.6341 -318.033M101.104 -347.766L67.2682 -318.033M134.738 -347.766L100.909 -318.033M168.373 -347.766L134.543 -318.033M202.013 -347.766L168.177 -318.033M235.648 -347.766L201.811 -318.033M269.282 -347.766L235.452 -318.033M302.923 -347.766L269.086 -318.033M336.557 -347.766L302.721 -318.033M370.191 -347.766L336.361 -318.033M403.825 -347.766L369.995 -318.033M437.466 -347.766L403.63 -318.033M471.1 -347.766L437.264 -318.033M504.734 -347.766L470.905 -318.033M538.375 -347.766L504.539 -318.033M572.009 -347.766L538.173 -318.033M605.643 -347.766L571.814 -318.033M639.277 -347.766L605.448 -318.033M672.918 -347.766L639.082 -318.033M706.552 -347.766L672.723 -318.033M740.186 -347.766L706.357 -318.033M773.827 -347.766L739.991 -318.033M807.461 -347.766L773.625 -318.033M841.095 -347.766L807.266 -318.033M874.736 -347.766L840.9 -318.033M908.37 -347.766L874.534 -318.033M942.004 -347.766L908.175 -318.033M975.639 -347.766L941.809 -318.033M1009.28 -347.766L975.443 -318.033M1042.91 -347.766L1009.08 -318.033M1076.55 -347.766L1042.72 -318.033M1110.19 -347.766L1076.35 -318.033M1143.82 -347.766L1109.99 -318.033M1177.46 -347.766L1143.63 -318.033M1211.09 -347.766L1177.26 -318.033M1244.73 -347.766L1210.9 -318.033M1278.37 -347.766L1244.53 -318.033M1312 -347.766L1278.17 -318.033M33.8294 -318.211L0 -288.478M67.4702 -318.211L33.6341 -288.478M101.104 -318.211L67.2682 -288.478M134.738 -318.211L100.909 -288.478M168.373 -318.211L134.543 -288.478M202.013 -318.211L168.177 -288.478M235.648 -318.211L201.811 -288.478M269.282 -318.211L235.452 -288.478M302.923 -318.211L269.086 -288.478M336.557 -318.211L302.721 -288.478M370.191 -318.211L336.361 -288.478M403.825 -318.211L369.995 -288.478M437.466 -318.211L403.63 -288.478M471.1 -318.211L437.264 -288.478M504.734 -318.211L470.905 -288.478M538.375 -318.211L504.539 -288.478M572.009 -318.211L538.173 -288.478M605.643 -318.211L571.814 -288.478M639.277 -318.211L605.448 -288.478M672.918 -318.211L639.082 -288.478M706.552 -318.211L672.723 -288.478M740.186 -318.211L706.357 -288.478M773.827 -318.211L739.991 -288.478M807.461 -318.211L773.625 -288.478M841.095 -318.211L807.266 -288.478M874.736 -318.211L840.9 -288.478M908.37 -318.211L874.534 -288.478M942.004 -318.211L908.175 -288.478M975.639 -318.211L941.809 -288.478M1009.28 -318.211L975.443 -288.478M1042.91 -318.211L1009.08 -288.478M1076.55 -318.211L1042.72 -288.478M1110.19 -318.211L1076.35 -288.478M1143.82 -318.211L1109.99 -288.478M1177.46 -318.211L1143.63 -288.478M1211.09 -318.211L1177.26 -288.478M1244.73 -318.211L1210.9 -288.478M1278.37 -318.211L1244.53 -288.478M1312 -318.211L1278.17 -288.478M33.8294 -288.65L0 -258.923M67.4702 -288.65L33.6341 -258.923M101.104 -288.65L67.2682 -258.923M134.738 -288.65L100.909 -258.923M168.373 -288.65L134.543 -258.923M202.013 -288.65L168.177 -258.923M235.648 -288.65L201.811 -258.923M269.282 -288.65L235.452 -258.923M302.923 -288.65L269.086 -258.923M336.557 -288.65L302.721 -258.923M370.191 -288.65L336.361 -258.923M403.825 -288.65L369.995 -258.923M437.466 -288.65L403.63 -258.923M471.1 -288.65L437.264 -258.923M504.734 -288.65L470.905 -258.923M538.375 -288.65L504.539 -258.923M572.009 -288.65L538.173 -258.923M605.643 -288.65L571.814 -258.923M639.277 -288.65L605.448 -258.923M672.918 -288.65L639.082 -258.923M706.552 -288.65L672.723 -258.923M740.186 -288.65L706.357 -258.923M773.827 -288.65L739.991 -258.923M807.461 -288.65L773.625 -258.923M841.095 -288.65L807.266 -258.923M874.736 -288.65L840.9 -258.923M908.37 -288.65L874.534 -258.923M942.004 -288.65L908.175 -258.923M975.639 -288.65L941.809 -258.923M1009.28 -288.65L975.443 -258.923M1042.91 -288.65L1009.08 -258.923M1076.55 -288.65L1042.72 -258.923M1110.19 -288.65L1076.35 -258.923M1143.82 -288.65L1109.99 -258.923M1177.46 -288.65L1143.63 -258.923M1211.09 -288.65L1177.26 -258.923M1244.73 -288.65L1210.9 -258.923M1278.37 -288.65L1244.53 -258.923M1312 -288.65L1278.17 -258.923M33.8294 -259.094L0 -229.361M67.4702 -259.094L33.6341 -229.361M101.104 -259.094L67.2682 -229.361M134.738 -259.094L100.909 -229.361M168.373 -259.094L134.543 -229.361M202.013 -259.094L168.177 -229.361M235.648 -259.094L201.811 -229.361M269.282 -259.094L235.452 -229.361M302.923 -259.094L269.086 -229.361M336.557 -259.094L302.721 -229.361M370.191 -259.094L336.361 -229.361M403.825 -259.094L369.995 -229.361M437.466 -259.094L403.63 -229.361M471.1 -259.094L437.264 -229.361M504.734 -259.094L470.905 -229.361M538.375 -259.094L504.539 -229.361M572.009 -259.094L538.173 -229.361M605.643 -259.094L571.814 -229.361M639.277 -259.094L605.448 -229.361M672.918 -259.094L639.082 -229.361M706.552 -259.094L672.723 -229.361M740.186 -259.094L706.357 -229.361M773.827 -259.094L739.991 -229.361M807.461 -259.094L773.625 -229.361M841.095 -259.094L807.266 -229.361M874.736 -259.094L840.9 -229.361M908.37 -259.094L874.534 -229.361M942.004 -259.094L908.175 -229.361M975.639 -259.094L941.809 -229.361M1009.28 -259.094L975.443 -229.361M1042.91 -259.094L1009.08 -229.361M1076.55 -259.094L1042.72 -229.361M1110.19 -259.094L1076.35 -229.361M1143.82 -259.094L1109.99 -229.361M1177.46 -259.094L1143.63 -229.361M1211.09 -259.094L1177.26 -229.361M1244.73 -259.094L1210.9 -229.361M1278.37 -259.094L1244.53 -229.361M1312 -259.094L1278.17 -229.361M33.8294 -229.539L0 -199.806M67.4702 -229.539L33.6341 -199.806M101.104 -229.539L67.2682 -199.806M134.738 -229.539L100.909 -199.806M168.373 -229.539L134.543 -199.806M202.013 -229.539L168.177 -199.806M235.648 -229.539L201.811 -199.806M269.282 -229.539L235.452 -199.806M302.923 -229.539L269.086 -199.806M336.557 -229.539L302.721 -199.806M370.191 -229.539L336.361 -199.806M403.825 -229.539L369.995 -199.806M437.466 -229.539L403.63 -199.806M471.1 -229.539L437.264 -199.806M504.734 -229.539L470.905 -199.806M538.375 -229.539L504.539 -199.806M572.009 -229.539L538.173 -199.806M605.643 -229.539L571.814 -199.806M639.277 -229.539L605.448 -199.806M672.918 -229.539L639.082 -199.806M706.552 -229.539L672.723 -199.806M740.186 -229.539L706.357 -199.806M773.827 -229.539L739.991 -199.806M807.461 -229.539L773.625 -199.806M841.095 -229.539L807.266 -199.806M874.736 -229.539L840.9 -199.806M908.37 -229.539L874.534 -199.806M942.004 -229.539L908.175 -199.806M975.639 -229.539L941.809 -199.806M1009.28 -229.539L975.443 -199.806M1042.91 -229.539L1009.08 -199.806M1076.55 -229.539L1042.72 -199.806M1110.19 -229.539L1076.35 -199.806M1143.82 -229.539L1109.99 -199.806M1177.46 -229.539L1143.63 -199.806M1211.09 -229.539L1177.26 -199.806M1244.73 -229.539L1210.9 -199.806M1278.37 -229.539L1244.53 -199.806M1312 -229.539L1278.17 -199.806M33.8294 -199.977L0 -170.25M67.4702 -199.977L33.6341 -170.25M101.104 -199.977L67.2682 -170.25M134.738 -199.977L100.909 -170.25M168.373 -199.977L134.543 -170.25M202.013 -199.977L168.177 -170.25M235.648 -199.977L201.811 -170.25M269.282 -199.977L235.452 -170.25M302.923 -199.977L269.086 -170.25M336.557 -199.977L302.721 -170.25M370.191 -199.977L336.361 -170.25M403.825 -199.977L369.995 -170.25M437.466 -199.977L403.63 -170.25M471.1 -199.977L437.264 -170.25M504.734 -199.977L470.905 -170.25M538.375 -199.977L504.539 -170.25M572.009 -199.977L538.173 -170.25M605.643 -199.977L571.814 -170.25M639.277 -199.977L605.448 -170.25M672.918 -199.977L639.082 -170.25M706.552 -199.977L672.723 -170.25M740.186 -199.977L706.357 -170.25M773.827 -199.977L739.991 -170.25M807.461 -199.977L773.625 -170.25M841.095 -199.977L807.266 -170.25M874.736 -199.977L840.9 -170.25M908.37 -199.977L874.534 -170.25M942.004 -199.977L908.175 -170.25M975.639 -199.977L941.809 -170.25M1009.28 -199.977L975.443 -170.25M1042.91 -199.977L1009.08 -170.25M1076.55 -199.977L1042.72 -170.25M1110.19 -199.977L1076.35 -170.25M1143.82 -199.977L1109.99 -170.25M1177.46 -199.977L1143.63 -170.25M1211.09 -199.977L1177.26 -170.25M1244.73 -199.977L1210.9 -170.25M1278.37 -199.977L1244.53 -170.25M1312 -199.977L1278.17 -170.25M33.8294 -170.422L0 -140.689M67.4702 -170.422L33.6341 -140.689M101.104 -170.422L67.2682 -140.689M134.738 -170.422L100.909 -140.689M168.373 -170.422L134.543 -140.689M202.013 -170.422L168.177 -140.689M235.648 -170.422L201.811 -140.689M269.282 -170.422L235.452 -140.689M302.923 -170.422L269.086 -140.689M336.557 -170.422L302.721 -140.689M370.191 -170.422L336.361 -140.689M403.825 -170.422L369.995 -140.689M437.466 -170.422L403.63 -140.689M471.1 -170.422L437.264 -140.689M504.734 -170.422L470.905 -140.689M538.375 -170.422L504.539 -140.689M572.009 -170.422L538.173 -140.689M605.643 -170.422L571.814 -140.689M639.277 -170.422L605.448 -140.689M672.918 -170.422L639.082 -140.689M706.552 -170.422L672.723 -140.689M740.186 -170.422L706.357 -140.689M773.827 -170.422L739.991 -140.689M807.461 -170.422L773.625 -140.689M841.095 -170.422L807.266 -140.689M874.736 -170.422L840.9 -140.689M908.37 -170.422L874.534 -140.689M942.004 -170.422L908.175 -140.689M975.639 -170.422L941.809 -140.689M1009.28 -170.422L975.443 -140.689M1042.91 -170.422L1009.08 -140.689M1076.55 -170.422L1042.72 -140.689M1110.19 -170.422L1076.35 -140.689M1143.82 -170.422L1109.99 -140.689M1177.46 -170.422L1143.63 -140.689M1211.09 -170.422L1177.26 -140.689M1244.73 -170.422L1210.9 -140.689M1278.37 -170.422L1244.53 -140.689M1312 -170.422L1278.17 -140.689M33.8294 -140.866L0 -111.134M67.4702 -140.866L33.6341 -111.134M101.104 -140.866L67.2682 -111.134M134.738 -140.866L100.909 -111.134M168.373 -140.866L134.543 -111.134M202.013 -140.866L168.177 -111.134M235.648 -140.866L201.811 -111.134M269.282 -140.866L235.452 -111.134M302.923 -140.866L269.086 -111.134M336.557 -140.866L302.721 -111.134M370.191 -140.866L336.361 -111.134M403.825 -140.866L369.995 -111.134M437.466 -140.866L403.63 -111.134M471.1 -140.866L437.264 -111.134M504.734 -140.866L470.905 -111.134M538.375 -140.866L504.539 -111.134M572.009 -140.866L538.173 -111.134M605.643 -140.866L571.814 -111.134M639.277 -140.866L605.448 -111.134M672.918 -140.866L639.082 -111.134M706.552 -140.866L672.723 -111.134M740.186 -140.866L706.357 -111.134M773.827 -140.866L739.991 -111.134M807.461 -140.866L773.625 -111.134M841.095 -140.866L807.266 -111.134M874.736 -140.866L840.9 -111.134M908.37 -140.866L874.534 -111.134M942.004 -140.866L908.175 -111.134M975.639 -140.866L941.809 -111.134M1009.28 -140.866L975.443 -111.134M1042.91 -140.866L1009.08 -111.134M1076.55 -140.866L1042.72 -111.134M1110.19 -140.866L1076.35 -111.134M1143.82 -140.866L1109.99 -111.134M1177.46 -140.866L1143.63 -111.134M1211.09 -140.866L1177.26 -111.134M1244.73 -140.866L1210.9 -111.134M1278.37 -140.866L1244.53 -111.134M1312 -140.866L1278.17 -111.134M33.8294 -111.305L0 -81.5781M67.4702 -111.305L33.6341 -81.5781M101.104 -111.305L67.2682 -81.5781M134.738 -111.305L100.909 -81.5781M168.373 -111.305L134.543 -81.5781M202.013 -111.305L168.177 -81.5781M235.648 -111.305L201.811 -81.5781M269.282 -111.305L235.452 -81.5781M302.923 -111.305L269.086 -81.5781M336.557 -111.305L302.721 -81.5781M370.191 -111.305L336.361 -81.5781M403.825 -111.305L369.995 -81.5781M437.466 -111.305L403.63 -81.5781M471.1 -111.305L437.264 -81.5781M504.734 -111.305L470.905 -81.5781M538.375 -111.305L504.539 -81.5781M572.009 -111.305L538.173 -81.5781M605.643 -111.305L571.814 -81.5781M639.277 -111.305L605.448 -81.5781M672.918 -111.305L639.082 -81.5781M706.552 -111.305L672.723 -81.5781M740.186 -111.305L706.357 -81.5781M773.827 -111.305L739.991 -81.5781M807.461 -111.305L773.625 -81.5781M841.095 -111.305L807.266 -81.5781M874.736 -111.305L840.9 -81.5781M908.37 -111.305L874.534 -81.5781M942.004 -111.305L908.175 -81.5781M975.639 -111.305L941.809 -81.5781M1009.28 -111.305L975.443 -81.5781M1042.91 -111.305L1009.08 -81.5781M1076.55 -111.305L1042.72 -81.5781M1110.19 -111.305L1076.35 -81.5781M1143.82 -111.305L1109.99 -81.5781M1177.46 -111.305L1143.63 -81.5781M1211.09 -111.305L1177.26 -81.5781M1244.73 -111.305L1210.9 -81.5781M1278.37 -111.305L1244.53 -81.5781M1312 -111.305L1278.17 -81.5781M33.8294 -81.7496L0 -52.0167M67.4702 -81.7496L33.6341 -52.0167M101.104 -81.7496L67.2682 -52.0167M134.738 -81.7496L100.909 -52.0167M168.373 -81.7496L134.543 -52.0167M202.013 -81.7496L168.177 -52.0167M235.648 -81.7496L201.811 -52.0167M269.282 -81.7496L235.452 -52.0167M302.923 -81.7496L269.086 -52.0167M336.557 -81.7496L302.721 -52.0167M370.191 -81.7496L336.361 -52.0167M403.825 -81.7496L369.995 -52.0167M437.466 -81.7496L403.63 -52.0167M471.1 -81.7496L437.264 -52.0167M504.734 -81.7496L470.905 -52.0167M538.375 -81.7496L504.539 -52.0167M572.009 -81.7496L538.173 -52.0167M605.643 -81.7496L571.814 -52.0167M639.277 -81.7496L605.448 -52.0167M672.918 -81.7496L639.082 -52.0167M706.552 -81.7496L672.723 -52.0167M740.186 -81.7496L706.357 -52.0167M773.827 -81.7496L739.991 -52.0167M807.461 -81.7496L773.625 -52.0167M841.095 -81.7496L807.266 -52.0167M874.736 -81.7496L840.9 -52.0167M908.37 -81.7496L874.534 -52.0167M942.004 -81.7496L908.175 -52.0167M975.639 -81.7496L941.809 -52.0167M1009.28 -81.7496L975.443 -52.0167M1042.91 -81.7496L1009.08 -52.0167M1076.55 -81.7496L1042.72 -52.0167M1110.19 -81.7496L1076.35 -52.0167M1143.82 -81.7496L1109.99 -52.0167M1177.46 -81.7496L1143.63 -52.0167M1211.09 -81.7496L1177.26 -52.0167M1244.73 -81.7496L1210.9 -52.0167M1278.37 -81.7496L1244.53 -52.0167M1312 -81.7496L1278.17 -52.0167M33.8294 -52.1882L0 -22.4613M67.4702 -52.1882L33.6341 -22.4613M101.104 -52.1882L67.2682 -22.4613M134.738 -52.1882L100.909 -22.4613M168.373 -52.1882L134.543 -22.4613M202.013 -52.1882L168.177 -22.4613M235.648 -52.1882L201.811 -22.4613M269.282 -52.1882L235.452 -22.4613M302.923 -52.1882L269.086 -22.4613M336.557 -52.1882L302.721 -22.4613M370.191 -52.1882L336.361 -22.4613M403.825 -52.1882L369.995 -22.4613M437.466 -52.1882L403.63 -22.4613M471.1 -52.1882L437.264 -22.4613M504.734 -52.1882L470.905 -22.4613M538.375 -52.1882L504.539 -22.4613M572.009 -52.1882L538.173 -22.4613M605.643 -52.1882L571.814 -22.4613M639.277 -52.1882L605.448 -22.4613M672.918 -52.1882L639.082 -22.4613M706.552 -52.1882L672.723 -22.4613M740.186 -52.1882L706.357 -22.4613M773.827 -52.1882L739.991 -22.4613M807.461 -52.1882L773.625 -22.4613M841.095 -52.1882L807.266 -22.4613M874.736 -52.1882L840.9 -22.4613M908.37 -52.1882L874.534 -22.4613M942.004 -52.1882L908.175 -22.4613M975.639 -52.1882L941.809 -22.4613M1009.28 -52.1882L975.443 -22.4613M1042.91 -52.1882L1009.08 -22.4613M1076.55 -52.1882L1042.72 -22.4613M1110.19 -52.1882L1076.35 -22.4613M1143.82 -52.1882L1109.99 -22.4613M1177.46 -52.1882L1143.63 -22.4613M1211.09 -52.1882L1177.26 -22.4613M1244.73 -52.1882L1210.9 -22.4613M1278.37 -52.1882L1244.53 -22.4613M1312 -52.1882L1278.17 -22.4613M33.8294 -22.6328L0 7.1001M67.4702 -22.6328L33.6341 7.1001M101.104 -22.6328L67.2682 7.1001M134.738 -22.6328L100.909 7.1001M168.373 -22.6328L134.543 7.1001M202.013 -22.6328L168.177 7.1001M235.648 -22.6328L201.811 7.1001M269.282 -22.6328L235.452 7.1001M302.923 -22.6328L269.086 7.1001M336.557 -22.6328L302.721 7.1001M370.191 -22.6328L336.361 7.1001M403.825 -22.6328L369.995 7.1001M437.466 -22.6328L403.63 7.1001M471.1 -22.6328L437.264 7.1001M504.734 -22.6328L470.905 7.1001M538.375 -22.6328L504.539 7.1001M572.009 -22.6328L538.173 7.1001M605.643 -22.6328L571.814 7.1001M639.277 -22.6328L605.448 7.1001M672.918 -22.6328L639.082 7.1001M706.552 -22.6328L672.723 7.1001M740.186 -22.6328L706.357 7.1001M773.827 -22.6328L739.991 7.1001M807.461 -22.6328L773.625 7.1001M841.095 -22.6328L807.266 7.1001M874.736 -22.6328L840.9 7.1001M908.37 -22.6328L874.534 7.1001M942.004 -22.6328L908.175 7.1001M975.639 -22.6328L941.809 7.1001M1009.28 -22.6328L975.443 7.1001M1042.91 -22.6328L1009.08 7.1001M1076.55 -22.6328L1042.72 7.1001M1110.19 -22.6328L1076.35 7.1001M1143.82 -22.6328L1109.99 7.1001M1177.46 -22.6328L1143.63 7.1001M1211.09 -22.6328L1177.26 7.1001M1244.73 -22.6328L1210.9 7.1001M1278.37 -22.6328L1244.53 7.1001M1312 -22.6328L1278.17 7.1001M33.8294 6.92261L0 36.6555M67.4702 6.92261L33.6341 36.6555M101.104 6.92261L67.2682 36.6555M134.738 6.92261L100.909 36.6555M168.373 6.92261L134.543 36.6555M202.013 6.92261L168.177 36.6555M235.648 6.92261L201.811 36.6555M269.282 6.92261L235.452 36.6555M302.923 6.92261L269.086 36.6555M336.557 6.92261L302.721 36.6555M370.191 6.92261L336.361 36.6555M403.825 6.92261L369.995 36.6555M437.466 6.92261L403.63 36.6555M471.1 6.92261L437.264 36.6555M504.734 6.92261L470.905 36.6555M538.375 6.92261L504.539 36.6555M572.009 6.92261L538.173 36.6555M605.643 6.92261L571.814 36.6555M639.277 6.92261L605.448 36.6555M672.918 6.92261L639.082 36.6555M706.552 6.92261L672.723 36.6555M740.186 6.92261L706.357 36.6555M773.827 6.92261L739.991 36.6555M807.461 6.92261L773.625 36.6555M841.095 6.92261L807.266 36.6555M874.736 6.92261L840.9 36.6555M908.37 6.92261L874.534 36.6555M942.004 6.92261L908.175 36.6555M975.639 6.92261L941.809 36.6555M1009.28 6.92261L975.443 36.6555M1042.91 6.92261L1009.08 36.6555M1076.55 6.92261L1042.72 36.6555M1110.19 6.92261L1076.35 36.6555M1143.82 6.92261L1109.99 36.6555M1177.46 6.92261L1143.63 36.6555M1211.09 6.92261L1177.26 36.6555M1244.73 6.92261L1210.9 36.6555M1278.37 6.92261L1244.53 36.6555M1312 6.92261L1278.17 36.6555M33.8294 36.484L0 66.211M67.4702 36.484L33.6341 66.211M101.104 36.484L67.2682 66.211M134.738 36.484L100.909 66.211M168.373 36.484L134.543 66.211M202.013 36.484L168.177 66.211M235.648 36.484L201.811 66.211M269.282 36.484L235.452 66.211M302.923 36.484L269.086 66.211M336.557 36.484L302.721 66.211M370.191 36.484L336.361 66.211M403.825 36.484L369.995 66.211M437.466 36.484L403.63 66.211M471.1 36.484L437.264 66.211M504.734 36.484L470.905 66.211M538.375 36.484L504.539 66.211M572.009 36.484L538.173 66.211M605.643 36.484L571.814 66.211M639.277 36.484L605.448 66.211M672.918 36.484L639.082 66.211M706.552 36.484L672.723 66.211M740.186 36.484L706.357 66.211M773.827 36.484L739.991 66.211M807.461 36.484L773.625 66.211M841.095 36.484L807.266 66.211M874.736 36.484L840.9 66.211M908.37 36.484L874.534 66.211M942.004 36.484L908.175 66.211M975.639 36.484L941.809 66.211M1009.28 36.484L975.443 66.211M1042.91 36.484L1009.08 66.211M1076.55 36.484L1042.72 66.211M1110.19 36.484L1076.35 66.211M1143.82 36.484L1109.99 66.211M1177.46 36.484L1143.63 66.211M1211.09 36.484L1177.26 66.211M1244.73 36.484L1210.9 66.211M1278.37 36.484L1244.53 66.211M1312 36.484L1278.17 66.211M33.8294 66.0394L0 95.7724M67.4702 66.0394L33.6341 95.7724M101.104 66.0394L67.2682 95.7724M134.738 66.0394L100.909 95.7724M168.373 66.0394L134.543 95.7724M202.013 66.0394L168.177 95.7724M235.648 66.0394L201.811 95.7724M269.282 66.0394L235.452 95.7724M302.923 66.0394L269.086 95.7724M336.557 66.0394L302.721 95.7724M370.191 66.0394L336.361 95.7724M403.825 66.0394L369.995 95.7724M437.466 66.0394L403.63 95.7724M471.1 66.0394L437.264 95.7724M504.734 66.0394L470.905 95.7724M538.375 66.0394L504.539 95.7724M572.009 66.0394L538.173 95.7724M605.643 66.0394L571.814 95.7724M639.277 66.0394L605.448 95.7724M672.918 66.0394L639.082 95.7724M706.552 66.0394L672.723 95.7724M740.186 66.0394L706.357 95.7724M773.827 66.0394L739.991 95.7724M807.461 66.0394L773.625 95.7724M841.095 66.0394L807.266 95.7724M874.736 66.0394L840.9 95.7724M908.37 66.0394L874.534 95.7724M942.004 66.0394L908.175 95.7724M975.639 66.0394L941.809 95.7724M1009.28 66.0394L975.443 95.7724M1042.91 66.0394L1009.08 95.7724M1076.55 66.0394L1042.72 95.7724M1110.19 66.0394L1076.35 95.7724M1143.82 66.0394L1109.99 95.7724M1177.46 66.0394L1143.63 95.7724M1211.09 66.0394L1177.26 95.7724M1244.73 66.0394L1210.9 95.7724M1278.37 66.0394L1244.53 95.7724M1312 66.0394L1278.17 95.7724M33.8294 95.5949L0 125.328M67.4702 95.5949L33.6341 125.328M101.104 95.5949L67.2682 125.328M134.738 95.5949L100.909 125.328M168.373 95.5949L134.543 125.328M202.013 95.5949L168.177 125.328M235.648 95.5949L201.811 125.328M269.282 95.5949L235.452 125.328M302.923 95.5949L269.086 125.328M336.557 95.5949L302.721 125.328M370.191 95.5949L336.361 125.328M403.825 95.5949L369.995 125.328M437.466 95.5949L403.63 125.328M471.1 95.5949L437.264 125.328M504.734 95.5949L470.905 125.328M538.375 95.5949L504.539 125.328M572.009 95.5949L538.173 125.328M605.643 95.5949L571.814 125.328M639.277 95.5949L605.448 125.328M672.918 95.5949L639.082 125.328M706.552 95.5949L672.723 125.328M740.186 95.5949L706.357 125.328M773.827 95.5949L739.991 125.328M807.461 95.5949L773.625 125.328M841.095 95.5949L807.266 125.328M874.736 95.5949L840.9 125.328M908.37 95.5949L874.534 125.328M942.004 95.5949L908.175 125.328M975.639 95.5949L941.809 125.328M1009.28 95.5949L975.443 125.328M1042.91 95.5949L1009.08 125.328M1076.55 95.5949L1042.72 125.328M1110.19 95.5949L1076.35 125.328M1143.82 95.5949L1109.99 125.328M1177.46 95.5949L1143.63 125.328M1211.09 95.5949L1177.26 125.328M1244.73 95.5949L1210.9 125.328M1278.37 95.5949L1244.53 125.328M1312 95.5949L1278.17 125.328M33.8294 125.156L0 154.883M67.4702 125.156L33.6341 154.883M101.104 125.156L67.2682 154.883M134.738 125.156L100.909 154.883M168.373 125.156L134.543 154.883M202.013 125.156L168.177 154.883M235.648 125.156L201.811 154.883M269.282 125.156L235.452 154.883M302.923 125.156L269.086 154.883M336.557 125.156L302.721 154.883M370.191 125.156L336.361 154.883M403.825 125.156L369.995 154.883M437.466 125.156L403.63 154.883M471.1 125.156L437.264 154.883M504.734 125.156L470.905 154.883M538.375 125.156L504.539 154.883M572.009 125.156L538.173 154.883M605.643 125.156L571.814 154.883M639.277 125.156L605.448 154.883M672.918 125.156L639.082 154.883M706.552 125.156L672.723 154.883M740.186 125.156L706.357 154.883M773.827 125.156L739.991 154.883M807.461 125.156L773.625 154.883M841.095 125.156L807.266 154.883M874.736 125.156L840.9 154.883M908.37 125.156L874.534 154.883M942.004 125.156L908.175 154.883M975.639 125.156L941.809 154.883M1009.28 125.156L975.443 154.883M1042.91 125.156L1009.08 154.883M1076.55 125.156L1042.72 154.883M1110.19 125.156L1076.35 154.883M1143.82 125.156L1109.99 154.883M1177.46 125.156L1143.63 154.883M1211.09 125.156L1177.26 154.883M1244.73 125.156L1210.9 154.883M1278.37 125.156L1244.53 154.883M1312 125.156L1278.17 154.883M33.8294 154.712L0 184.445M67.4702 154.712L33.6341 184.445M101.104 154.712L67.2682 184.445M134.738 154.712L100.909 184.445M168.373 154.712L134.543 184.445M202.013 154.712L168.177 184.445M235.648 154.712L201.811 184.445M269.282 154.712L235.452 184.445M302.923 154.712L269.086 184.445M336.557 154.712L302.721 184.445M370.191 154.712L336.361 184.445M403.825 154.712L369.995 184.445M437.466 154.712L403.63 184.445M471.1 154.712L437.264 184.445M504.734 154.712L470.905 184.445M538.375 154.712L504.539 184.445M572.009 154.712L538.173 184.445M605.643 154.712L571.814 184.445M639.277 154.712L605.448 184.445M672.918 154.712L639.082 184.445M706.552 154.712L672.723 184.445M740.186 154.712L706.357 184.445M773.827 154.712L739.991 184.445M807.461 154.712L773.625 184.445M841.095 154.712L807.266 184.445M874.736 154.712L840.9 184.445M908.37 154.712L874.534 184.445M942.004 154.712L908.175 184.445M975.639 154.712L941.809 184.445M1009.28 154.712L975.443 184.445M1042.91 154.712L1009.08 184.445M1076.55 154.712L1042.72 184.445M1110.19 154.712L1076.35 184.445M1143.82 154.712L1109.99 184.445M1177.46 154.712L1143.63 184.445M1211.09 154.712L1177.26 184.445M1244.73 154.712L1210.9 184.445M1278.37 154.712L1244.53 184.445M1312 154.712L1278.17 184.445M33.8294 184.267L0 214M67.4702 184.267L33.6341 214M101.104 184.267L67.2682 214M134.738 184.267L100.909 214M168.373 184.267L134.543 214M202.013 184.267L168.177 214M235.648 184.267L201.811 214M269.282 184.267L235.452 214M302.923 184.267L269.086 214M336.557 184.267L302.721 214M370.191 184.267L336.361 214M403.825 184.267L369.995 214M437.466 184.267L403.63 214M471.1 184.267L437.264 214M504.734 184.267L470.905 214M538.375 184.267L504.539 214M572.009 184.267L538.173 214M605.643 184.267L571.814 214M639.277 184.267L605.448 214M672.918 184.267L639.082 214M706.552 184.267L672.723 214M740.186 184.267L706.357 214M773.827 184.267L739.991 214M807.461 184.267L773.625 214M841.095 184.267L807.266 214M874.736 184.267L840.9 214M908.37 184.267L874.534 214M942.004 184.267L908.175 214M975.639 184.267L941.809 214M1009.28 184.267L975.443 214M1042.91 184.267L1009.08 214M1076.55 184.267L1042.72 214M1110.19 184.267L1076.35 214M1143.82 184.267L1109.99 214M1177.46 184.267L1143.63 214M1211.09 184.267L1177.26 214M1244.73 184.267L1210.9 214M1278.37 184.267L1244.53 214M1312 184.267L1278.17 214" stroke="#7C7C8A" stroke-width="0.5" stroke-miterlimit="10"/>
</g>
</svg>
