<svg width="543" height="36" viewBox="0 0 543 36" fill="none" xmlns="http://www.w3.org/2000/svg">
<mask id="mask0_32_55" style="mask-type:alpha" maskUnits="userSpaceOnUse" x="0" y="0" width="543" height="36">
<rect width="542.896" height="36" fill="#F5F6FA"/>
</mask>
<g mask="url(#mask0_32_55)">
<path d="M13.9984 -192.828L0 -180.524M27.9187 -192.828L13.9176 -180.524M41.8363 -192.828L27.8351 -180.524M55.7538 -192.828L41.7555 -180.524M69.6714 -192.828L55.673 -180.524M83.5917 -192.828L69.5906 -180.524M97.5093 -192.828L83.5082 -180.524M111.427 -192.828L97.4285 -180.524M125.347 -192.828L111.346 -180.524M139.265 -192.828L125.264 -180.524M153.182 -192.828L139.184 -180.524M167.1 -192.828L153.102 -180.524M181.02 -192.828L167.019 -180.524M194.938 -192.828L180.937 -180.524M208.855 -192.828L194.857 -180.524M222.776 -192.828L208.775 -180.524M236.693 -192.828L222.692 -180.524M250.611 -192.828L236.613 -180.524M264.528 -192.828L250.53 -180.524M278.449 -192.828L264.448 -180.524M292.366 -192.828L278.368 -180.524M306.284 -192.828L292.286 -180.524M320.204 -192.828L306.203 -180.524M334.122 -192.828L320.121 -180.524M348.039 -192.828L334.041 -180.524M361.96 -192.828L347.959 -180.524M375.877 -192.828L361.876 -180.524M389.795 -192.828L375.797 -180.524M403.712 -192.828L389.714 -180.524M417.633 -192.828L403.632 -180.524M431.55 -192.828L417.549 -180.524M445.468 -192.828L431.47 -180.524M459.388 -192.828L445.387 -180.524M473.306 -192.828L459.305 -180.524M487.223 -192.828L473.225 -180.524M501.141 -192.828L487.143 -180.524M515.061 -192.828L501.06 -180.524M528.979 -192.828L514.978 -180.524M542.896 -192.828L528.898 -180.524M13.9984 -180.595L0 -168.295M27.9187 -180.595L13.9176 -168.295M41.8363 -180.595L27.8351 -168.295M55.7538 -180.595L41.7555 -168.295M69.6714 -180.595L55.673 -168.295M83.5917 -180.595L69.5906 -168.295M97.5093 -180.595L83.5082 -168.295M111.427 -180.595L97.4285 -168.295M125.347 -180.595L111.346 -168.295M139.265 -180.595L125.264 -168.295M153.182 -180.595L139.184 -168.295M167.1 -180.595L153.102 -168.295M181.02 -180.595L167.019 -168.295M194.938 -180.595L180.937 -168.295M208.855 -180.595L194.857 -168.295M222.776 -180.595L208.775 -168.295M236.693 -180.595L222.692 -168.295M250.611 -180.595L236.613 -168.295M264.528 -180.595L250.53 -168.295M278.449 -180.595L264.448 -168.295M292.366 -180.595L278.368 -168.295M306.284 -180.595L292.286 -168.295M320.204 -180.595L306.203 -168.295M334.122 -180.595L320.121 -168.295M348.039 -180.595L334.041 -168.295M361.96 -180.595L347.959 -168.295M375.877 -180.595L361.876 -168.295M389.795 -180.595L375.797 -168.295M403.712 -180.595L389.714 -168.295M417.633 -180.595L403.632 -168.295M431.55 -180.595L417.549 -168.295M445.468 -180.595L431.47 -168.295M459.388 -180.595L445.387 -168.295M473.306 -180.595L459.305 -168.295M487.223 -180.595L473.225 -168.295M501.141 -180.595L487.143 -168.295M515.061 -180.595L501.06 -168.295M528.979 -180.595L514.978 -168.295M542.896 -180.595L528.898 -168.295M13.9984 -168.366L0 -156.062M27.9187 -168.366L13.9176 -156.062M41.8363 -168.366L27.8351 -156.062M55.7538 -168.366L41.7555 -156.062M69.6714 -168.366L55.673 -156.062M83.5917 -168.366L69.5906 -156.062M97.5093 -168.366L83.5082 -156.062M111.427 -168.366L97.4285 -156.062M125.347 -168.366L111.346 -156.062M139.265 -168.366L125.264 -156.062M153.182 -168.366L139.184 -156.062M167.1 -168.366L153.102 -156.062M181.02 -168.366L167.019 -156.062M194.938 -168.366L180.937 -156.062M208.855 -168.366L194.857 -156.062M222.776 -168.366L208.775 -156.062M236.693 -168.366L222.692 -156.062M250.611 -168.366L236.613 -156.062M264.528 -168.366L250.53 -156.062M278.449 -168.366L264.448 -156.062M292.366 -168.366L278.368 -156.062M306.284 -168.366L292.286 -156.062M320.204 -168.366L306.203 -156.062M334.122 -168.366L320.121 -156.062M348.039 -168.366L334.041 -156.062M361.96 -168.366L347.959 -156.062M375.877 -168.366L361.876 -156.062M389.795 -168.366L375.797 -156.062M403.712 -168.366L389.714 -156.062M417.633 -168.366L403.632 -156.062M431.55 -168.366L417.549 -156.062M445.468 -168.366L431.47 -156.062M459.388 -168.366L445.387 -156.062M473.306 -168.366L459.305 -156.062M487.223 -168.366L473.225 -156.062M501.141 -168.366L487.143 -156.062M515.061 -168.366L501.06 -156.062M528.979 -168.366L514.978 -156.062M542.896 -168.366L528.898 -156.062M13.9984 -156.133L0 -143.832M27.9187 -156.133L13.9176 -143.832M41.8363 -156.133L27.8351 -143.832M55.7538 -156.133L41.7555 -143.832M69.6714 -156.133L55.673 -143.832M83.5917 -156.133L69.5906 -143.832M97.5093 -156.133L83.5082 -143.832M111.427 -156.133L97.4285 -143.832M125.347 -156.133L111.346 -143.832M139.265 -156.133L125.264 -143.832M153.182 -156.133L139.184 -143.832M167.1 -156.133L153.102 -143.832M181.02 -156.133L167.019 -143.832M194.938 -156.133L180.937 -143.832M208.855 -156.133L194.857 -143.832M222.776 -156.133L208.775 -143.832M236.693 -156.133L222.692 -143.832M250.611 -156.133L236.613 -143.832M264.528 -156.133L250.53 -143.832M278.449 -156.133L264.448 -143.832M292.366 -156.133L278.368 -143.832M306.284 -156.133L292.286 -143.832M320.204 -156.133L306.203 -143.832M334.122 -156.133L320.121 -143.832M348.039 -156.133L334.041 -143.832M361.96 -156.133L347.959 -143.832M375.877 -156.133L361.876 -143.832M389.795 -156.133L375.797 -143.832M403.712 -156.133L389.714 -143.832M417.633 -156.133L403.632 -143.832M431.55 -156.133L417.549 -143.832M445.468 -156.133L431.47 -143.832M459.388 -156.133L445.387 -143.832M473.306 -156.133L459.305 -143.832M487.223 -156.133L473.225 -143.832M501.141 -156.133L487.143 -143.832M515.061 -156.133L501.06 -143.832M528.979 -156.133L514.978 -143.832M542.896 -156.133L528.898 -143.832M13.9984 -143.903L0 -131.6M27.9187 -143.903L13.9176 -131.6M41.8363 -143.903L27.8351 -131.6M55.7538 -143.903L41.7555 -131.6M69.6714 -143.903L55.673 -131.6M83.5917 -143.903L69.5906 -131.6M97.5093 -143.903L83.5082 -131.6M111.427 -143.903L97.4285 -131.6M125.347 -143.903L111.346 -131.6M139.265 -143.903L125.264 -131.6M153.182 -143.903L139.184 -131.6M167.1 -143.903L153.102 -131.6M181.02 -143.903L167.019 -131.6M194.938 -143.903L180.937 -131.6M208.855 -143.903L194.857 -131.6M222.776 -143.903L208.775 -131.6M236.693 -143.903L222.692 -131.6M250.611 -143.903L236.613 -131.6M264.528 -143.903L250.53 -131.6M278.449 -143.903L264.448 -131.6M292.366 -143.903L278.368 -131.6M306.284 -143.903L292.286 -131.6M320.204 -143.903L306.203 -131.6M334.122 -143.903L320.121 -131.6M348.039 -143.903L334.041 -131.6M361.96 -143.903L347.959 -131.6M375.877 -143.903L361.876 -131.6M389.795 -143.903L375.797 -131.6M403.712 -143.903L389.714 -131.6M417.633 -143.903L403.632 -131.6M431.55 -143.903L417.549 -131.6M445.468 -143.903L431.47 -131.6M459.388 -143.903L445.387 -131.6M473.306 -143.903L459.305 -131.6M487.223 -143.903L473.225 -131.6M501.141 -143.903L487.143 -131.6M515.061 -143.903L501.06 -131.6M528.979 -143.903L514.978 -131.6M542.896 -143.903L528.898 -131.6M13.9984 -131.674L0 -119.37M27.9187 -131.674L13.9176 -119.37M41.8363 -131.674L27.8351 -119.37M55.7538 -131.674L41.7555 -119.37M69.6714 -131.674L55.673 -119.37M83.5917 -131.674L69.5906 -119.37M97.5093 -131.674L83.5082 -119.37M111.427 -131.674L97.4285 -119.37M125.347 -131.674L111.346 -119.37M139.265 -131.674L125.264 -119.37M153.182 -131.674L139.184 -119.37M167.1 -131.674L153.102 -119.37M181.02 -131.674L167.019 -119.37M194.938 -131.674L180.937 -119.37M208.855 -131.674L194.857 -119.37M222.776 -131.674L208.775 -119.37M236.693 -131.674L222.692 -119.37M250.611 -131.674L236.613 -119.37M264.528 -131.674L250.53 -119.37M278.449 -131.674L264.448 -119.37M292.366 -131.674L278.368 -119.37M306.284 -131.674L292.286 -119.37M320.204 -131.674L306.203 -119.37M334.122 -131.674L320.121 -119.37M348.039 -131.674L334.041 -119.37M361.96 -131.674L347.959 -119.37M375.877 -131.674L361.876 -119.37M389.795 -131.674L375.797 -119.37M403.712 -131.674L389.714 -119.37M417.633 -131.674L403.632 -119.37M431.55 -131.674L417.549 -119.37M445.468 -131.674L431.47 -119.37M459.388 -131.674L445.387 -119.37M473.306 -131.674L459.305 -119.37M487.223 -131.674L473.225 -119.37M501.141 -131.674L487.143 -119.37M515.061 -131.674L501.06 -119.37M528.979 -131.674L514.978 -119.37M542.896 -131.674L528.898 -119.37M13.9984 -119.441L0 -107.14M27.9187 -119.441L13.9176 -107.14M41.8363 -119.441L27.8351 -107.14M55.7538 -119.441L41.7555 -107.14M69.6714 -119.441L55.673 -107.14M83.5917 -119.441L69.5906 -107.14M97.5093 -119.441L83.5082 -107.14M111.427 -119.441L97.4285 -107.14M125.347 -119.441L111.346 -107.14M139.265 -119.441L125.264 -107.14M153.182 -119.441L139.184 -107.14M167.1 -119.441L153.102 -107.14M181.02 -119.441L167.019 -107.14M194.938 -119.441L180.937 -107.14M208.855 -119.441L194.857 -107.14M222.776 -119.441L208.775 -107.14M236.693 -119.441L222.692 -107.14M250.611 -119.441L236.613 -107.14M264.528 -119.441L250.53 -107.14M278.449 -119.441L264.448 -107.14M292.366 -119.441L278.368 -107.14M306.284 -119.441L292.286 -107.14M320.204 -119.441L306.203 -107.14M334.122 -119.441L320.121 -107.14M348.039 -119.441L334.041 -107.14M361.96 -119.441L347.959 -107.14M375.877 -119.441L361.876 -107.14M389.795 -119.441L375.797 -107.14M403.712 -119.441L389.714 -107.14M417.633 -119.441L403.632 -107.14M431.55 -119.441L417.549 -107.14M445.468 -119.441L431.47 -107.14M459.388 -119.441L445.387 -107.14M473.306 -119.441L459.305 -107.14M487.223 -119.441L473.225 -107.14M501.141 -119.441L487.143 -107.14M515.061 -119.441L501.06 -107.14M528.979 -119.441L514.978 -107.14M542.896 -119.441L528.898 -107.14M13.9984 -107.211L0 -94.9081M27.9187 -107.211L13.9176 -94.9081M41.8363 -107.211L27.8351 -94.9081M55.7538 -107.211L41.7555 -94.9081M69.6714 -107.211L55.673 -94.9081M83.5917 -107.211L69.5906 -94.9081M97.5093 -107.211L83.5082 -94.9081M111.427 -107.211L97.4285 -94.9081M125.347 -107.211L111.346 -94.9081M139.265 -107.211L125.264 -94.9081M153.182 -107.211L139.184 -94.9081M167.1 -107.211L153.102 -94.9081M181.02 -107.211L167.019 -94.9081M194.938 -107.211L180.937 -94.9081M208.855 -107.211L194.857 -94.9081M222.776 -107.211L208.775 -94.9081M236.693 -107.211L222.692 -94.9081M250.611 -107.211L236.613 -94.9081M264.528 -107.211L250.53 -94.9081M278.449 -107.211L264.448 -94.9081M292.366 -107.211L278.368 -94.9081M306.284 -107.211L292.286 -94.9081M320.204 -107.211L306.203 -94.9081M334.122 -107.211L320.121 -94.9081M348.039 -107.211L334.041 -94.9081M361.96 -107.211L347.959 -94.9081M375.877 -107.211L361.876 -94.9081M389.795 -107.211L375.797 -94.9081M403.712 -107.211L389.714 -94.9081M417.633 -107.211L403.632 -94.9081M431.55 -107.211L417.549 -94.9081M445.468 -107.211L431.47 -94.9081M459.388 -107.211L445.387 -94.9081M473.306 -107.211L459.305 -94.9081M487.223 -107.211L473.225 -94.9081M501.141 -107.211L487.143 -94.9081M515.061 -107.211L501.06 -94.9081M528.979 -107.211L514.978 -94.9081M542.896 -107.211L528.898 -94.9081M13.9984 -94.9816L0 -82.6783M27.9187 -94.9816L13.9176 -82.6783M41.8363 -94.9816L27.8351 -82.6783M55.7538 -94.9816L41.7555 -82.6783M69.6714 -94.9816L55.673 -82.6783M83.5917 -94.9816L69.5906 -82.6783M97.5093 -94.9816L83.5082 -82.6783M111.427 -94.9816L97.4285 -82.6783M125.347 -94.9816L111.346 -82.6783M139.265 -94.9816L125.264 -82.6783M153.182 -94.9816L139.184 -82.6783M167.1 -94.9816L153.102 -82.6783M181.02 -94.9816L167.019 -82.6783M194.938 -94.9816L180.937 -82.6783M208.855 -94.9816L194.857 -82.6783M222.776 -94.9816L208.775 -82.6783M236.693 -94.9816L222.692 -82.6783M250.611 -94.9816L236.613 -82.6783M264.528 -94.9816L250.53 -82.6783M278.449 -94.9816L264.448 -82.6783M292.366 -94.9816L278.368 -82.6783M306.284 -94.9816L292.286 -82.6783M320.204 -94.9816L306.203 -82.6783M334.122 -94.9816L320.121 -82.6783M348.039 -94.9816L334.041 -82.6783M361.96 -94.9816L347.959 -82.6783M375.877 -94.9816L361.876 -82.6783M389.795 -94.9816L375.797 -82.6783M403.712 -94.9816L389.714 -82.6783M417.633 -94.9816L403.632 -82.6783M431.55 -94.9816L417.549 -82.6783M445.468 -94.9816L431.47 -82.6783M459.388 -94.9816L445.387 -82.6783M473.306 -94.9816L459.305 -82.6783M487.223 -94.9816L473.225 -82.6783M501.141 -94.9816L487.143 -82.6783M515.061 -94.9816L501.06 -82.6783M528.979 -94.9816L514.978 -82.6783M542.896 -94.9816L528.898 -82.6783M13.9984 -82.7493L0 -70.4485M27.9187 -82.7493L13.9176 -70.4485M41.8363 -82.7493L27.8351 -70.4485M55.7538 -82.7493L41.7555 -70.4485M69.6714 -82.7493L55.673 -70.4485M83.5917 -82.7493L69.5906 -70.4485M97.5093 -82.7493L83.5082 -70.4485M111.427 -82.7493L97.4285 -70.4485M125.347 -82.7493L111.346 -70.4485M139.265 -82.7493L125.264 -70.4485M153.182 -82.7493L139.184 -70.4485M167.1 -82.7493L153.102 -70.4485M181.02 -82.7493L167.019 -70.4485M194.938 -82.7493L180.937 -70.4485M208.855 -82.7493L194.857 -70.4485M222.776 -82.7493L208.775 -70.4485M236.693 -82.7493L222.692 -70.4485M250.611 -82.7493L236.613 -70.4485M264.528 -82.7493L250.53 -70.4485M278.449 -82.7493L264.448 -70.4485M292.366 -82.7493L278.368 -70.4485M306.284 -82.7493L292.286 -70.4485M320.204 -82.7493L306.203 -70.4485M334.122 -82.7493L320.121 -70.4485M348.039 -82.7493L334.041 -70.4485M361.96 -82.7493L347.959 -70.4485M375.877 -82.7493L361.876 -70.4485M389.795 -82.7493L375.797 -70.4485M403.712 -82.7493L389.714 -70.4485M417.633 -82.7493L403.632 -70.4485M431.55 -82.7493L417.549 -70.4485M445.468 -82.7493L431.47 -70.4485M459.388 -82.7493L445.387 -70.4485M473.306 -82.7493L459.305 -70.4485M487.223 -82.7493L473.225 -70.4485M501.141 -82.7493L487.143 -70.4485M515.061 -82.7493L501.06 -70.4485M528.979 -82.7493L514.978 -70.4485M542.896 -82.7493L528.898 -70.4485M13.9984 -70.5194L0 -58.2162M27.9187 -70.5194L13.9176 -58.2162M41.8363 -70.5194L27.8351 -58.2162M55.7538 -70.5194L41.7555 -58.2162M69.6714 -70.5194L55.673 -58.2162M83.5917 -70.5194L69.5906 -58.2162M97.5093 -70.5194L83.5082 -58.2162M111.427 -70.5194L97.4285 -58.2162M125.347 -70.5194L111.346 -58.2162M139.265 -70.5194L125.264 -58.2162M153.182 -70.5194L139.184 -58.2162M167.1 -70.5194L153.102 -58.2162M181.02 -70.5194L167.019 -58.2162M194.938 -70.5194L180.937 -58.2162M208.855 -70.5194L194.857 -58.2162M222.776 -70.5194L208.775 -58.2162M236.693 -70.5194L222.692 -58.2162M250.611 -70.5194L236.613 -58.2162M264.528 -70.5194L250.53 -58.2162M278.449 -70.5194L264.448 -58.2162M292.366 -70.5194L278.368 -58.2162M306.284 -70.5194L292.286 -58.2162M320.204 -70.5194L306.203 -58.2162M334.122 -70.5194L320.121 -58.2162M348.039 -70.5194L334.041 -58.2162M361.96 -70.5194L347.959 -58.2162M375.877 -70.5194L361.876 -58.2162M389.795 -70.5194L375.797 -58.2162M403.712 -70.5194L389.714 -58.2162M417.633 -70.5194L403.632 -58.2162M431.55 -70.5194L417.549 -58.2162M445.468 -70.5194L431.47 -58.2162M459.388 -70.5194L445.387 -58.2162M473.306 -70.5194L459.305 -58.2162M487.223 -70.5194L473.225 -58.2162M501.141 -70.5194L487.143 -58.2162M515.061 -70.5194L501.06 -58.2162M528.979 -70.5194L514.978 -58.2162M542.896 -70.5194L528.898 -58.2162M13.9984 -58.2896L0 -45.9863M27.9187 -58.2896L13.9176 -45.9863M41.8363 -58.2896L27.8351 -45.9863M55.7538 -58.2896L41.7555 -45.9863M69.6714 -58.2896L55.673 -45.9863M83.5917 -58.2896L69.5906 -45.9863M97.5093 -58.2896L83.5082 -45.9863M111.427 -58.2896L97.4285 -45.9863M125.347 -58.2896L111.346 -45.9863M139.265 -58.2896L125.264 -45.9863M153.182 -58.2896L139.184 -45.9863M167.1 -58.2896L153.102 -45.9863M181.02 -58.2896L167.019 -45.9863M194.938 -58.2896L180.937 -45.9863M208.855 -58.2896L194.857 -45.9863M222.776 -58.2896L208.775 -45.9863M236.693 -58.2896L222.692 -45.9863M250.611 -58.2896L236.613 -45.9863M264.528 -58.2896L250.53 -45.9863M278.449 -58.2896L264.448 -45.9863M292.366 -58.2896L278.368 -45.9863M306.284 -58.2896L292.286 -45.9863M320.204 -58.2896L306.203 -45.9863M334.122 -58.2896L320.121 -45.9863M348.039 -58.2896L334.041 -45.9863M361.96 -58.2896L347.959 -45.9863M375.877 -58.2896L361.876 -45.9863M389.795 -58.2896L375.797 -45.9863M403.712 -58.2896L389.714 -45.9863M417.633 -58.2896L403.632 -45.9863M431.55 -58.2896L417.549 -45.9863M445.468 -58.2896L431.47 -45.9863M459.388 -58.2896L445.387 -45.9863M473.306 -58.2896L459.305 -45.9863M487.223 -58.2896L473.225 -45.9863M501.141 -58.2896L487.143 -45.9863M515.061 -58.2896L501.06 -45.9863M528.979 -58.2896L514.978 -45.9863M542.896 -58.2896L528.898 -45.9863M13.9984 -46.0573L0 -33.7565M27.9187 -46.0573L13.9176 -33.7565M41.8363 -46.0573L27.8351 -33.7565M55.7538 -46.0573L41.7555 -33.7565M69.6714 -46.0573L55.673 -33.7565M83.5917 -46.0573L69.5906 -33.7565M97.5093 -46.0573L83.5082 -33.7565M111.427 -46.0573L97.4285 -33.7565M125.347 -46.0573L111.346 -33.7565M139.265 -46.0573L125.264 -33.7565M153.182 -46.0573L139.184 -33.7565M167.1 -46.0573L153.102 -33.7565M181.02 -46.0573L167.019 -33.7565M194.938 -46.0573L180.937 -33.7565M208.855 -46.0573L194.857 -33.7565M222.776 -46.0573L208.775 -33.7565M236.693 -46.0573L222.692 -33.7565M250.611 -46.0573L236.613 -33.7565M264.528 -46.0573L250.53 -33.7565M278.449 -46.0573L264.448 -33.7565M292.366 -46.0573L278.368 -33.7565M306.284 -46.0573L292.286 -33.7565M320.204 -46.0573L306.203 -33.7565M334.122 -46.0573L320.121 -33.7565M348.039 -46.0573L334.041 -33.7565M361.96 -46.0573L347.959 -33.7565M375.877 -46.0573L361.876 -33.7565M389.795 -46.0573L375.797 -33.7565M403.712 -46.0573L389.714 -33.7565M417.633 -46.0573L403.632 -33.7565M431.55 -46.0573L417.549 -33.7565M445.468 -46.0573L431.47 -33.7565M459.388 -46.0573L445.387 -33.7565M473.306 -46.0573L459.305 -33.7565M487.223 -46.0573L473.225 -33.7565M501.141 -46.0573L487.143 -33.7565M515.061 -46.0573L501.06 -33.7565M528.979 -46.0573L514.978 -33.7565M542.896 -46.0573L528.898 -33.7565M13.9984 -33.8275L0 -21.5242M27.9187 -33.8275L13.9176 -21.5242M41.8363 -33.8275L27.8351 -21.5242M55.7538 -33.8275L41.7555 -21.5242M69.6714 -33.8275L55.673 -21.5242M83.5917 -33.8275L69.5906 -21.5242M97.5093 -33.8275L83.5082 -21.5242M111.427 -33.8275L97.4285 -21.5242M125.347 -33.8275L111.346 -21.5242M139.265 -33.8275L125.264 -21.5242M153.182 -33.8275L139.184 -21.5242M167.1 -33.8275L153.102 -21.5242M181.02 -33.8275L167.019 -21.5242M194.938 -33.8275L180.937 -21.5242M208.855 -33.8275L194.857 -21.5242M222.776 -33.8275L208.775 -21.5242M236.693 -33.8275L222.692 -21.5242M250.611 -33.8275L236.613 -21.5242M264.528 -33.8275L250.53 -21.5242M278.449 -33.8275L264.448 -21.5242M292.366 -33.8275L278.368 -21.5242M306.284 -33.8275L292.286 -21.5242M320.204 -33.8275L306.203 -21.5242M334.122 -33.8275L320.121 -21.5242M348.039 -33.8275L334.041 -21.5242M361.96 -33.8275L347.959 -21.5242M375.877 -33.8275L361.876 -21.5242M389.795 -33.8275L375.797 -21.5242M403.712 -33.8275L389.714 -21.5242M417.633 -33.8275L403.632 -21.5242M431.55 -33.8275L417.549 -21.5242M445.468 -33.8275L431.47 -21.5242M459.388 -33.8275L445.387 -21.5242M473.306 -33.8275L459.305 -21.5242M487.223 -33.8275L473.225 -21.5242M501.141 -33.8275L487.143 -21.5242M515.061 -33.8275L501.06 -21.5242M528.979 -33.8275L514.978 -21.5242M542.896 -33.8275L528.898 -21.5242M13.9984 -21.5952L0 -9.29437M27.9187 -21.5952L13.9176 -9.29437M41.8363 -21.5952L27.8351 -9.29437M55.7538 -21.5952L41.7555 -9.29437M69.6714 -21.5952L55.673 -9.29437M83.5917 -21.5952L69.5906 -9.29437M97.5093 -21.5952L83.5082 -9.29437M111.427 -21.5952L97.4285 -9.29437M125.347 -21.5952L111.346 -9.29437M139.265 -21.5952L125.264 -9.29437M153.182 -21.5952L139.184 -9.29437M167.1 -21.5952L153.102 -9.29437M181.02 -21.5952L167.019 -9.29437M194.938 -21.5952L180.937 -9.29437M208.855 -21.5952L194.857 -9.29437M222.776 -21.5952L208.775 -9.29437M236.693 -21.5952L222.692 -9.29437M250.611 -21.5952L236.613 -9.29437M264.528 -21.5952L250.53 -9.29437M278.449 -21.5952L264.448 -9.29437M292.366 -21.5952L278.368 -9.29437M306.284 -21.5952L292.286 -9.29437M320.204 -21.5952L306.203 -9.29437M334.122 -21.5952L320.121 -9.29437M348.039 -21.5952L334.041 -9.29437M361.96 -21.5952L347.959 -9.29437M375.877 -21.5952L361.876 -9.29437M389.795 -21.5952L375.797 -9.29437M403.712 -21.5952L389.714 -9.29437M417.633 -21.5952L403.632 -9.29437M431.55 -21.5952L417.549 -9.29437M445.468 -21.5952L431.47 -9.29437M459.388 -21.5952L445.387 -9.29437M473.306 -21.5952L459.305 -9.29437M487.223 -21.5952L473.225 -9.29437M501.141 -21.5952L487.143 -9.29437M515.061 -21.5952L501.06 -9.29437M528.979 -21.5952L514.978 -9.29437M542.896 -21.5952L528.898 -9.29437M13.9984 -9.36534L0 2.93792M27.9187 -9.36534L13.9176 2.93792M41.8363 -9.36534L27.8351 2.93792M55.7538 -9.36534L41.7555 2.93792M69.6714 -9.36534L55.673 2.93792M83.5917 -9.36534L69.5906 2.93792M97.5093 -9.36534L83.5082 2.93792M111.427 -9.36534L97.4285 2.93792M125.347 -9.36534L111.346 2.93792M139.265 -9.36534L125.264 2.93792M153.182 -9.36534L139.184 2.93792M167.1 -9.36534L153.102 2.93792M181.02 -9.36534L167.019 2.93792M194.938 -9.36534L180.937 2.93792M208.855 -9.36534L194.857 2.93792M222.776 -9.36534L208.775 2.93792M236.693 -9.36534L222.692 2.93792M250.611 -9.36534L236.613 2.93792M264.528 -9.36534L250.53 2.93792M278.449 -9.36534L264.448 2.93792M292.366 -9.36534L278.368 2.93792M306.284 -9.36534L292.286 2.93792M320.204 -9.36534L306.203 2.93792M334.122 -9.36534L320.121 2.93792M348.039 -9.36534L334.041 2.93792M361.96 -9.36534L347.959 2.93792M375.877 -9.36534L361.876 2.93792M389.795 -9.36534L375.797 2.93792M403.712 -9.36534L389.714 2.93792M417.633 -9.36534L403.632 2.93792M431.55 -9.36534L417.549 2.93792M445.468 -9.36534L431.47 2.93792M459.388 -9.36534L445.387 2.93792M473.306 -9.36534L459.305 2.93792M487.223 -9.36534L473.225 2.93792M501.141 -9.36534L487.143 2.93792M515.061 -9.36534L501.06 2.93792M528.979 -9.36534L514.978 2.93792M542.896 -9.36534L528.898 2.93792M13.9984 2.86447L0 15.1678M27.9187 2.86447L13.9176 15.1678M41.8363 2.86447L27.8351 15.1678M55.7538 2.86447L41.7555 15.1678M69.6714 2.86447L55.673 15.1678M83.5917 2.86447L69.5906 15.1678M97.5093 2.86447L83.5082 15.1678M111.427 2.86447L97.4285 15.1678M125.347 2.86447L111.346 15.1678M139.265 2.86447L125.264 15.1678M153.182 2.86447L139.184 15.1678M167.1 2.86447L153.102 15.1678M181.02 2.86447L167.019 15.1678M194.938 2.86447L180.937 15.1678M208.855 2.86447L194.857 15.1678M222.776 2.86447L208.775 15.1678M236.693 2.86447L222.692 15.1678M250.611 2.86447L236.613 15.1678M264.528 2.86447L250.53 15.1678M278.449 2.86447L264.448 15.1678M292.366 2.86447L278.368 15.1678M306.284 2.86447L292.286 15.1678M320.204 2.86447L306.203 15.1678M334.122 2.86447L320.121 15.1678M348.039 2.86447L334.041 15.1678M361.96 2.86447L347.959 15.1678M375.877 2.86447L361.876 15.1678M389.795 2.86447L375.797 15.1678M403.712 2.86447L389.714 15.1678M417.633 2.86447L403.632 15.1678M431.55 2.86447L417.549 15.1678M445.468 2.86447L431.47 15.1678M459.388 2.86447L445.387 15.1678M473.306 2.86447L459.305 15.1678M487.223 2.86447L473.225 15.1678M501.141 2.86447L487.143 15.1678M515.061 2.86447L501.06 15.1678M528.979 2.86447L514.978 15.1678M542.896 2.86447L528.898 15.1678M13.9984 15.0968L0 27.3976M27.9187 15.0968L13.9176 27.3976M41.8363 15.0968L27.8351 27.3976M55.7538 15.0968L41.7555 27.3976M69.6714 15.0968L55.673 27.3976M83.5917 15.0968L69.5906 27.3976M97.5093 15.0968L83.5082 27.3976M111.427 15.0968L97.4285 27.3976M125.347 15.0968L111.346 27.3976M139.265 15.0968L125.264 27.3976M153.182 15.0968L139.184 27.3976M167.1 15.0968L153.102 27.3976M181.02 15.0968L167.019 27.3976M194.938 15.0968L180.937 27.3976M208.855 15.0968L194.857 27.3976M222.776 15.0968L208.775 27.3976M236.693 15.0968L222.692 27.3976M250.611 15.0968L236.613 27.3976M264.528 15.0968L250.53 27.3976M278.449 15.0968L264.448 27.3976M292.366 15.0968L278.368 27.3976M306.284 15.0968L292.286 27.3976M320.204 15.0968L306.203 27.3976M334.122 15.0968L320.121 27.3976M348.039 15.0968L334.041 27.3976M361.96 15.0968L347.959 27.3976M375.877 15.0968L361.876 27.3976M389.795 15.0968L375.797 27.3976M403.712 15.0968L389.714 27.3976M417.633 15.0968L403.632 27.3976M431.55 15.0968L417.549 27.3976M445.468 15.0968L431.47 27.3976M459.388 15.0968L445.387 27.3976M473.306 15.0968L459.305 27.3976M487.223 15.0968L473.225 27.3976M501.141 15.0968L487.143 27.3976M515.061 15.0968L501.06 27.3976M528.979 15.0968L514.978 27.3976M542.896 15.0968L528.898 27.3976M13.9984 27.3266L0 39.6299M27.9187 27.3266L13.9176 39.6299M41.8363 27.3266L27.8351 39.6299M55.7538 27.3266L41.7555 39.6299M69.6714 27.3266L55.673 39.6299M83.5917 27.3266L69.5906 39.6299M97.5093 27.3266L83.5082 39.6299M111.427 27.3266L97.4285 39.6299M125.347 27.3266L111.346 39.6299M139.265 27.3266L125.264 39.6299M153.182 27.3266L139.184 39.6299M167.1 27.3266L153.102 39.6299M181.02 27.3266L167.019 39.6299M194.938 27.3266L180.937 39.6299M208.855 27.3266L194.857 39.6299M222.776 27.3266L208.775 39.6299M236.693 27.3266L222.692 39.6299M250.611 27.3266L236.613 39.6299M264.528 27.3266L250.53 39.6299M278.449 27.3266L264.448 39.6299M292.366 27.3266L278.368 39.6299M306.284 27.3266L292.286 39.6299M320.204 27.3266L306.203 39.6299M334.122 27.3266L320.121 39.6299M348.039 27.3266L334.041 39.6299M361.96 27.3266L347.959 39.6299M375.877 27.3266L361.876 39.6299M389.795 27.3266L375.797 39.6299M403.712 27.3266L389.714 39.6299M417.633 27.3266L403.632 39.6299M431.55 27.3266L417.549 39.6299M445.468 27.3266L431.47 39.6299M459.388 27.3266L445.387 39.6299M473.306 27.3266L459.305 39.6299M487.223 27.3266L473.225 39.6299M501.141 27.3266L487.143 39.6299M515.061 27.3266L501.06 39.6299M528.979 27.3266L514.978 39.6299M542.896 27.3266L528.898 39.6299M13.9984 39.5564L0 51.8597M27.9187 39.5564L13.9176 51.8597M41.8363 39.5564L27.8351 51.8597M55.7538 39.5564L41.7555 51.8597M69.6714 39.5564L55.673 51.8597M83.5917 39.5564L69.5906 51.8597M97.5093 39.5564L83.5082 51.8597M111.427 39.5564L97.4285 51.8597M125.347 39.5564L111.346 51.8597M139.265 39.5564L125.264 51.8597M153.182 39.5564L139.184 51.8597M167.1 39.5564L153.102 51.8597M181.02 39.5564L167.019 51.8597M194.938 39.5564L180.937 51.8597M208.855 39.5564L194.857 51.8597M222.776 39.5564L208.775 51.8597M236.693 39.5564L222.692 51.8597M250.611 39.5564L236.613 51.8597M264.528 39.5564L250.53 51.8597M278.449 39.5564L264.448 51.8597M292.366 39.5564L278.368 51.8597M306.284 39.5564L292.286 51.8597M320.204 39.5564L306.203 51.8597M334.122 39.5564L320.121 51.8597M348.039 39.5564L334.041 51.8597M361.96 39.5564L347.959 51.8597M375.877 39.5564L361.876 51.8597M389.795 39.5564L375.797 51.8597M403.712 39.5564L389.714 51.8597M417.633 39.5564L403.632 51.8597M431.55 39.5564L417.549 51.8597M445.468 39.5564L431.47 51.8597M459.388 39.5564L445.387 51.8597M473.306 39.5564L459.305 51.8597M487.223 39.5564L473.225 51.8597M501.141 39.5564L487.143 51.8597M515.061 39.5564L501.06 51.8597M528.979 39.5564L514.978 51.8597M542.896 39.5564L528.898 51.8597M13.9984 51.7888L0 64.0896M27.9187 51.7888L13.9176 64.0896M41.8363 51.7888L27.8351 64.0896M55.7538 51.7888L41.7555 64.0896M69.6714 51.7888L55.673 64.0896M83.5917 51.7888L69.5906 64.0896M97.5093 51.7888L83.5082 64.0896M111.427 51.7888L97.4285 64.0896M125.347 51.7888L111.346 64.0896M139.265 51.7888L125.264 64.0896M153.182 51.7888L139.184 64.0896M167.1 51.7888L153.102 64.0896M181.02 51.7888L167.019 64.0896M194.938 51.7888L180.937 64.0896M208.855 51.7888L194.857 64.0896M222.776 51.7888L208.775 64.0896M236.693 51.7888L222.692 64.0896M250.611 51.7888L236.613 64.0896M264.528 51.7888L250.53 64.0896M278.449 51.7888L264.448 64.0896M292.366 51.7888L278.368 64.0896M306.284 51.7888L292.286 64.0896M320.204 51.7888L306.203 64.0896M334.122 51.7888L320.121 64.0896M348.039 51.7888L334.041 64.0896M361.96 51.7888L347.959 64.0896M375.877 51.7888L361.876 64.0896M389.795 51.7888L375.797 64.0896M403.712 51.7888L389.714 64.0896M417.633 51.7888L403.632 64.0896M431.55 51.7888L417.549 64.0896M445.468 51.7888L431.47 64.0896M459.388 51.7888L445.387 64.0896M473.306 51.7888L459.305 64.0896M487.223 51.7888L473.225 64.0896M501.141 51.7888L487.143 64.0896M515.061 51.7888L501.06 64.0896M528.979 51.7888L514.978 64.0896M542.896 51.7888L528.898 64.0896M13.9984 64.0186L0 76.3219M27.9187 64.0186L13.9176 76.3219M41.8363 64.0186L27.8351 76.3219M55.7538 64.0186L41.7555 76.3219M69.6714 64.0186L55.673 76.3219M83.5917 64.0186L69.5906 76.3219M97.5093 64.0186L83.5082 76.3219M111.427 64.0186L97.4285 76.3219M125.347 64.0186L111.346 76.3219M139.265 64.0186L125.264 76.3219M153.182 64.0186L139.184 76.3219M167.1 64.0186L153.102 76.3219M181.02 64.0186L167.019 76.3219M194.938 64.0186L180.937 76.3219M208.855 64.0186L194.857 76.3219M222.776 64.0186L208.775 76.3219M236.693 64.0186L222.692 76.3219M250.611 64.0186L236.613 76.3219M264.528 64.0186L250.53 76.3219M278.449 64.0186L264.448 76.3219M292.366 64.0186L278.368 76.3219M306.284 64.0186L292.286 76.3219M320.204 64.0186L306.203 76.3219M334.122 64.0186L320.121 76.3219M348.039 64.0186L334.041 76.3219M361.96 64.0186L347.959 76.3219M375.877 64.0186L361.876 76.3219M389.795 64.0186L375.797 76.3219M403.712 64.0186L389.714 76.3219M417.633 64.0186L403.632 76.3219M431.55 64.0186L417.549 76.3219M445.468 64.0186L431.47 76.3219M459.388 64.0186L445.387 76.3219M473.306 64.0186L459.305 76.3219M487.223 64.0186L473.225 76.3219M501.141 64.0186L487.143 76.3219M515.061 64.0186L501.06 76.3219M528.979 64.0186L514.978 76.3219M542.896 64.0186L528.898 76.3219M13.9984 76.2484L0 88.5517M27.9187 76.2484L13.9176 88.5517M41.8363 76.2484L27.8351 88.5517M55.7538 76.2484L41.7555 88.5517M69.6714 76.2484L55.673 88.5517M83.5917 76.2484L69.5906 88.5517M97.5093 76.2484L83.5082 88.5517M111.427 76.2484L97.4285 88.5517M125.347 76.2484L111.346 88.5517M139.265 76.2484L125.264 88.5517M153.182 76.2484L139.184 88.5517M167.1 76.2484L153.102 88.5517M181.02 76.2484L167.019 88.5517M194.938 76.2484L180.937 88.5517M208.855 76.2484L194.857 88.5517M222.776 76.2484L208.775 88.5517M236.693 76.2484L222.692 88.5517M250.611 76.2484L236.613 88.5517M264.528 76.2484L250.53 88.5517M278.449 76.2484L264.448 88.5517M292.366 76.2484L278.368 88.5517M306.284 76.2484L292.286 88.5517M320.204 76.2484L306.203 88.5517M334.122 76.2484L320.121 88.5517M348.039 76.2484L334.041 88.5517M361.96 76.2484L347.959 88.5517M375.877 76.2484L361.876 88.5517M389.795 76.2484L375.797 88.5517M403.712 76.2484L389.714 88.5517M417.633 76.2484L403.632 88.5517M431.55 76.2484L417.549 88.5517M445.468 76.2484L431.47 88.5517M459.388 76.2484L445.387 88.5517M473.306 76.2484L459.305 88.5517M487.223 76.2484L473.225 88.5517M501.141 76.2484L487.143 88.5517M515.061 76.2484L501.06 88.5517M528.979 76.2484L514.978 88.5517M542.896 76.2484L528.898 88.5517" stroke="#7C7C8A" stroke-width="0.5" stroke-miterlimit="10"/>
</g>
</svg>
