<svg width="256" height="382" viewBox="0 0 256 382" fill="none" xmlns="http://www.w3.org/2000/svg">
<g filter="url(#filter0_f_32_49)">
<ellipse cx="108.217" cy="361.451" rx="44.5966" ry="9.66779" fill="#1C1C1C" fill-opacity="0.25"/>
</g>
<path d="M87.9677 277.454C85.5396 273.43 83.6158 269.109 81.9882 264.691C81.1801 262.478 80.443 260.236 79.8177 257.96C79.4837 256.828 79.2126 255.679 78.926 254.533C78.6704 253.381 78.406 252.229 78.1877 251.068C76.4062 241.79 76.0459 232.178 77.4234 222.755C78.1102 218.047 79.2136 213.395 80.6987 208.866C82.1871 204.333 84.0155 199.936 86.2958 195.671C88.6532 191.466 91.5328 187.557 94.7969 184.013C98.0428 180.442 101.746 177.339 105.589 174.492C109.441 171.648 113.481 169.09 117.611 166.751C121.734 164.398 125.924 162.194 130.121 160.062C134.312 157.919 138.514 155.837 142.659 153.692C146.795 151.537 150.869 149.305 154.825 146.919C158.766 144.515 162.552 141.909 166.129 139.075L168.76 136.895C169.606 136.136 170.428 135.354 171.264 134.586C172.12 133.837 172.872 132.991 173.658 132.178C174.439 131.36 175.239 130.558 175.938 129.671C178.945 126.296 181.412 122.502 183.606 118.583L185.175 115.595L186.523 112.496L187.192 110.944L187.747 109.344L188.863 106.145L190.686 100.918L193.842 105.34C194.68 106.515 195.401 107.606 196.139 108.751C196.872 109.884 197.58 111.026 198.273 112.177C199.668 114.473 200.98 116.811 202.254 119.17C204.784 123.895 207.099 128.734 209.177 133.68C213.311 143.572 216.608 153.877 218.478 164.517C218.993 167.166 219.317 169.852 219.667 172.532L220.048 176.572C220.182 177.918 220.2 179.276 220.281 180.627C220.496 186.038 220.407 191.485 219.755 196.888L219.544 198.917L219.224 200.933C218.998 202.274 218.819 203.625 218.55 204.959C217.958 207.618 217.433 210.293 216.62 212.899L216.06 214.865C215.963 215.191 215.88 215.522 215.771 215.845L215.432 216.809L214.07 220.664C213.859 221.314 213.575 221.934 213.31 222.562L212.51 224.443C211.968 225.693 211.468 226.962 210.839 228.174C208.471 233.087 205.664 237.809 202.419 242.219C199.163 246.617 195.508 250.731 191.477 254.419C187.457 258.118 183.125 261.451 178.593 264.431C174.049 267.392 169.322 270.024 164.503 272.4C154.858 277.142 144.859 280.853 135.097 284.663L131.451 286.109L129.639 286.84C129.324 286.962 129.054 287.084 128.792 287.206L127.989 287.568C125.868 288.575 123.886 289.876 122.118 291.428C118.577 294.526 115.916 298.633 114.535 303.147C113.837 305.412 113.472 307.731 113.398 310.142C113.326 312.654 113.41 315.173 113.639 317.679C113.882 320.184 114.26 322.679 114.803 325.134C115.074 326.361 115.382 327.58 115.73 328.78C115.816 329.081 115.906 329.379 116 329.677C116.056 329.862 116.28 330.545 116.344 331.097C116.499 332.245 116.347 333.438 115.894 334.498C115.019 336.643 112.914 338.226 110.617 338.456C108.313 338.731 105.932 337.685 104.602 335.781C104.425 335.552 104.292 335.297 104.146 335.05L103.962 334.662L103.874 334.467L103.824 334.343L103.455 333.417L102.719 331.56C102.252 330.299 101.745 329.063 101.321 327.777C99.5284 322.685 98.1217 317.414 97.2226 312.063C95.3782 301.345 95.7474 290.381 97.485 279.782C99.2713 269.164 102.612 258.927 106.732 249.101C110.962 239.26 116.546 229.893 123.772 221.941C127.356 217.951 131.286 214.302 135.39 210.915C139.494 207.522 143.783 204.406 148.056 201.321C152.331 198.236 156.594 195.174 160.67 191.895C164.747 188.621 168.596 185.068 171.975 181.087C175.358 177.115 178.276 172.738 180.643 168.061C183.012 163.383 184.823 158.419 186.219 153.338C185.042 158.472 183.442 163.53 181.254 168.354C180.977 168.955 180.728 169.57 180.428 170.161L179.508 171.923C179.194 172.506 178.91 173.108 178.571 173.678L177.546 175.384C176.884 176.537 176.116 177.621 175.36 178.715C174.632 179.83 173.781 180.852 172.976 181.911C169.679 186.089 165.88 189.854 161.865 193.321C157.858 196.804 153.639 200.005 149.464 203.212C145.287 206.418 141.137 209.626 137.217 213.067C133.292 216.5 129.596 220.163 126.237 224.101C119.446 231.933 114.306 241.037 110.439 250.625L107.749 257.949C107.513 258.555 107.32 259.175 107.136 259.798L106.567 261.659L105.428 265.381L105.145 266.312L104.914 267.256L104.448 269.142L103.509 272.909C103.217 274.169 103.018 275.446 102.767 276.713C102.541 277.984 102.26 279.247 102.079 280.524C100.585 290.72 100.418 301.112 102.322 311.164C103.255 316.19 104.653 321.112 106.439 325.93C106.861 327.139 107.372 328.335 107.828 329.54L108.567 331.35L108.938 332.254L108.981 332.359L108.998 332.387C109.009 332.407 109.017 332.427 109.024 332.448C109.056 332.477 109.062 332.524 109.095 332.551C109.28 332.821 109.655 332.964 109.97 332.917C110.307 332.877 110.591 332.644 110.707 332.341C110.772 332.19 110.782 332.027 110.76 331.872C110.802 331.94 110.483 330.992 110.307 330.389C109.907 329.063 109.556 327.729 109.245 326.387C108.624 323.704 108.183 320.985 107.89 318.249C107.612 315.512 107.492 312.758 107.543 310.002C107.597 307.147 108.02 304.213 108.851 301.436C110.497 295.858 113.724 290.755 118.073 286.87C120.244 284.925 122.689 283.283 125.314 282.006L126.307 281.545C126.642 281.388 126.972 281.238 127.27 281.119L129.115 280.353L132.81 278.872C142.659 274.993 152.434 271.318 161.697 266.724C166.32 264.425 170.806 261.904 175.081 259.098C179.343 256.275 183.376 253.147 187.099 249.698C190.833 246.261 194.195 242.447 197.193 238.37C200.196 234.296 202.819 229.938 205.038 225.367C205.63 224.242 206.096 223.057 206.605 221.893L207.359 220.141C207.607 219.557 207.877 218.979 208.073 218.374L209.355 214.783L209.676 213.885C209.779 213.585 209.856 213.275 209.948 212.971L210.475 211.138C211.246 208.712 211.737 206.212 212.304 203.732C212.559 202.486 212.727 201.222 212.944 199.967L213.253 198.082L213.455 196.181C214.086 191.121 214.184 185.996 213.999 180.886C213.926 179.608 213.917 178.328 213.793 177.052L213.444 173.223C213.119 170.68 212.823 168.129 212.339 165.604C210.585 155.475 207.58 145.536 203.672 135.962C201.716 131.174 199.526 126.476 197.129 121.888C195.922 119.6 194.678 117.329 193.359 115.109C192.704 113.997 192.035 112.893 191.348 111.807C190.671 110.73 189.946 109.618 189.264 108.641L194.243 107.836L193.007 111.278L192.388 112.997L191.649 114.673C191.15 115.788 190.663 116.908 190.152 118.016L188.416 121.249C185.993 125.488 183.209 129.555 179.911 133.152C179.136 134.097 178.265 134.947 177.411 135.814C176.551 136.674 175.722 137.569 174.798 138.355C173.892 139.162 172.998 139.983 172.082 140.775L169.253 143.043C165.421 145.979 161.411 148.636 157.295 151.055C149.042 155.862 140.479 159.879 132.039 163.932C127.815 165.957 123.643 168.033 119.557 170.24C115.465 172.435 111.501 174.824 107.736 177.472C103.98 180.124 100.379 183.003 97.2282 186.318C94.0674 189.617 91.2244 193.219 88.8715 197.146C86.6065 201.101 84.6849 205.345 83.1183 209.692C81.5494 214.042 80.3452 218.529 79.5422 223.094C77.9149 232.223 77.8976 241.648 79.34 250.864C79.7076 253.167 80.1504 255.461 80.6909 257.734C81.2135 260.012 81.8487 262.265 82.557 264.495C83.9855 268.95 85.7148 273.332 87.9677 277.454Z" fill="#58C411"/>
<path d="M48.4489 120.427L51.3883 121.496C54.6429 122.681 58.2173 120.99 59.6502 117.837C66.7559 102.192 78.9197 88.7118 95.2856 80.1406C111.651 71.5695 129.66 69.248 146.566 72.3166C149.974 72.9354 153.4 70.9594 154.28 67.6101L155.074 64.5843C155.954 61.234 153.956 57.7831 150.555 57.1209C129.986 53.1162 107.977 55.7959 88.0118 66.252C68.0469 76.7082 53.3102 93.2733 44.8878 112.462C43.4955 115.634 45.194 119.242 48.4489 120.427ZM77.9002 131.145L80.8402 132.215C84.095 133.399 87.6575 131.696 89.2463 128.618C93.6683 120.054 100.666 112.719 109.833 107.918C119 103.117 129.015 101.543 138.572 102.785C142.007 103.231 145.436 101.273 146.316 97.9235L147.111 94.8973C147.992 91.5474 145.991 88.0848 142.572 87.5312C129.336 85.3879 115.325 87.3434 102.559 94.0293C89.793 100.715 80.2072 111.117 74.4302 123.219C72.9384 126.345 74.6452 129.96 77.9002 131.145ZM18.9973 109.709L21.9368 110.778C25.1914 111.963 28.7726 110.276 30.1355 107.092C39.8667 84.3574 57.1736 64.7048 80.738 52.3635C104.302 40.0222 130.313 36.988 154.542 41.9366C157.936 42.6294 161.362 40.6469 162.242 37.2967L163.037 34.2713C163.916 30.9214 161.918 27.476 158.529 26.7594C130.642 20.8637 100.628 24.2489 73.4644 38.4754C46.3009 52.7016 26.4254 75.4448 15.3898 101.726C14.0486 104.919 15.7427 108.525 18.9973 109.709Z" fill="#58C411"/>
<defs>
<filter id="filter0_f_32_49" x="53.6201" y="341.783" width="109.193" height="39.3356" filterUnits="userSpaceOnUse" color-interpolation-filters="sRGB">
<feFlood flood-opacity="0" result="BackgroundImageFix"/>
<feBlend mode="normal" in="SourceGraphic" in2="BackgroundImageFix" result="shape"/>
<feGaussianBlur stdDeviation="5" result="effect1_foregroundBlur_32_49"/>
</filter>
</defs>
</svg>
